<?xml version="1.0" encoding="UTF-8" standalone="no"?>
<!-- Created with Inkscape (http://www.inkscape.org/) -->
<svg
   xmlns:svg="http://www.w3.org/2000/svg"
   xmlns="http://www.w3.org/2000/svg"
   version="1.0"
   width="744" height="736" viewBox="0 124 744 736">
  <defs
     id="defs1310" />
  <g
     transform="matrix(0,-1.176212,1.176212,0,-134.7893,953.9706)"
     id="g1428">
    <g
       transform="matrix(1.039863,1.039863,-1.039863,1.039863,424.7279,-485.9862)"
       id="g1392">
      <path
         d="M 426.92853,178.34422 L 426.92853,745.34422 L 426.92853,178.34422 z "
         style="fill:#fdfdfd"
         id="path1394" />
      <path
         d="M 425.28288,743.14701 C 421.17592,736.6923 408.47846,654.2419 403.36809,600.84422 C 401.53454,581.68574 401.2765,541.01931 402.43534,453.84422 C 403.0044,411.03551 402.83802,397.33695 401.49403,376.34422 C 399.13978,339.57164 398.44861,334.24512 395.76899,332.22388 C 392.96049,330.10542 392.19776,321.60536 393.90693,311.4723 C 395.33691,302.99441 397.49344,300.91931 406.85953,299.00879 C 410.13304,298.34106 413.17522,297.43098 413.61994,296.98641 C 414.06467,296.54183 414.49298,281.57903 414.57175,263.73573 L 414.71497,231.29337 L 410.57175,228.41865 C 401.72995,222.28388 398.92853,217.67081 398.92853,209.24588 C 398.92853,199.7302 404.68028,191.99566 415.22537,187.33106 C 418.36176,185.94369 420.10565,184.4867 420.49723,182.92653 C 421.09089,180.56121 424.60137,178.34422 427.75308,178.34422 C 430.35047,178.34422 433.92853,181.21117 433.92853,183.29234 C 433.92853,184.50393 435.30735,185.67875 437.98827,186.75145 C 444.58983,189.39287 451.70697,196.77426 453.45715,202.79467 C 454.98743,208.05865 454.3303,215.85647 451.98753,220.23399 C 450.74167,222.56189 445.1521,227.3426 441.14233,229.50979 L 438.06066,231.17537 L 438.37091,245.65516 C 438.54155,253.61904 439.02102,260.68485 439.4364,261.35696 C 439.85179,262.02906 439.62425,264.94412 438.93078,267.83486 C 438.06589,271.44011 437.96044,274.30825 438.59502,276.96749 C 439.16846,279.3705 439.15879,282.43702 438.56959,285.0342 C 437.98747,287.60019 437.97084,290.8947 438.52671,293.5342 C 439.39815,297.67222 439.63379,297.893 444.43145,299.06642 C 459.35559,302.71659 460.92853,304.65321 460.92853,319.37784 C 460.92853,329.62561 460.19987,331.70538 456.10997,333.13112 L 453.2492,334.1284 L 452.61065,348.48631 C 452.25945,356.38316 451.49719,364.41922 450.91673,366.34422 C 450.21194,368.68156 449.74077,408.21195 449.49834,485.34422 C 449.25412,563.04898 448.75994,604.28015 447.98815,611.34422 C 442.97416,657.23659 433.21554,724.91656 429.61393,738.77695 C 428.29423,743.85564 426.73488,745.42904 425.28288,743.14701 z "
         style="fill:#c7cbcf"
         id="path1396" />
      <path
         d="M 425.5745,742.69488 C 422.17135,731.29994 413.7926,681.40361 409.9827,649.84422 C 408.32279,636.09422 406.16904,618.31922 405.1966,610.34422 C 403.61047,597.33632 403.42569,584.98792 403.40091,490.34422 C 403.37377,386.68268 402.95019,369.07944 399.83962,342.34422 C 398.89822,334.25285 397.52189,331.34422 394.63457,331.34422 C 393.07871,331.34422 394.2081,306.91533 395.8557,304.93111 C 397.96698,302.38846 402.27164,300.41703 408.14402,299.30335 C 411.01185,298.75948 413.82407,297.84871 414.39339,297.27943 C 415.05796,296.61491 415.48286,284.61755 415.58029,263.76687 L 415.73204,231.28938 L 413.21833,229.5668 C 407.84911,225.88742 402.09523,220.16087 400.92231,217.32919 C 400.19928,215.58366 399.86419,211.69563 400.10747,207.87489 C 400.67886,198.90145 404.02152,194.27178 413.67991,189.07676 C 417.66665,186.93239 420.92853,184.54032 420.92853,183.76106 C 420.92853,181.54802 424.6813,178.34422 427.27354,178.34422 C 429.8774,178.34422 432.92853,181.15601 432.92853,183.55561 C 432.92853,184.44251 435.24281,186.24179 438.32004,187.74734 C 447.42451,192.20174 453.90159,200.98791 453.92295,208.91272 C 453.92602,210.05039 453.24867,213.27054 452.41774,216.0686 C 450.77504,221.60018 446.13656,226.5237 440.25126,228.98274 C 437.14207,230.28184 436.09898,232.44229 436.93845,235.84422 C 437.23677,237.05311 438.06274,262.01982 437.89786,264.84422 C 437.83364,265.94422 437.68992,270.66922 437.57848,275.34422 C 437.46704,280.01922 437.04687,284.96922 436.64477,286.34422 C 436.22476,287.78047 436.49562,290.75896 437.28134,293.34422 C 438.75796,298.20274 438.70433,298.17019 451.19167,301.78596 C 459.36648,304.15301 460.42853,306.1207 460.42853,318.89929 C 460.42853,330.95475 459.69246,332.34422 453.30609,332.34422 C 450.08159,332.34422 448.92853,332.73932 448.92853,333.84422 C 448.92853,334.66922 448.53101,335.34422 448.04516,335.34422 C 447.55931,335.34422 446.8865,336.35672 446.55003,337.59422 C 446.12009,339.17549 446.56417,340.36434 448.04418,341.59422 L 450.1501,343.34422 L 448.00793,343.34422 C 446.82843,343.34422 445.63691,344.13065 445.35652,345.09422 C 445.07644,346.05672 443.50286,349.54422 441.85968,352.84422 C 438.25219,360.08912 438.2031,361.12405 441.42853,361.93358 C 444.42218,362.68493 444.62461,364.4043 441.99918,366.78029 C 440.09767,368.50113 440.10391,368.58739 442.4316,372.75667 L 444.79337,376.98701 L 442.67127,381.16562 C 441.50411,383.46385 440.00876,385.34422 439.34825,385.34422 C 437.49722,385.34422 437.07288,392.05999 438.8139,393.80102 C 440.12183,395.10895 440.09316,395.50482 438.56852,397.18954 C 437.00338,398.91899 436.99224,399.15469 438.44923,399.71379 C 439.57207,400.14466 439.9617,401.31178 439.7424,403.58734 C 439.30926,408.08185 436.5387,407.99613 436.10627,403.47484 C 435.92902,401.62168 434.94733,399.2074 433.92472,398.10976 C 431.66803,395.68748 430.50768,389.56179 431.46339,385.11595 C 431.85021,383.3165 433.46312,379.90916 435.04762,377.54409 C 438.62419,372.20559 438.65407,370.49788 435.21883,367.75871 C 432.43503,365.53898 431.70269,362.54672 431.81337,353.84422 C 431.84135,351.64422 431.36087,348.84706 430.74565,347.62831 C 429.89109,345.93544 429.93588,345.04029 430.93541,343.83593 C 431.92641,342.64185 431.96297,341.97866 431.08615,341.10184 C 430.44946,340.46515 429.92853,338.90922 429.92853,337.64422 C 429.92853,336.37922 429.59103,335.34439 429.17853,335.34459 C 427.83929,335.34525 427.42321,345.36094 427.70379,370.84422 C 428.01447,399.06137 428.86153,409.97428 430.71158,409.59422 C 431.56945,409.41799 431.92853,411.28381 431.92853,415.91754 C 431.92853,421.63825 432.15552,422.44761 433.67853,422.15733 C 435.78901,421.75508 436.5463,417.79351 434.89342,415.80191 C 433.04159,413.5706 434.51232,411.34422 437.83813,411.34422 C 441.16813,411.34422 442.72791,412.94484 441.0414,414.63135 C 440.42932,415.24343 439.92853,417.62433 439.92853,419.92225 C 439.92853,423.10777 439.39403,424.48558 437.67853,425.72225 L 435.42853,427.34422 L 437.67853,428.96619 C 440.48087,430.98633 440.50004,432.10698 437.78176,435.00045 C 436.25035,436.63056 435.92457,437.6523 436.64524,438.5649 C 437.20088,439.26853 437.95243,441.78915 438.31535,444.16628 C 438.67827,446.54342 439.90943,449.75194 441.05125,451.29634 C 442.7074,453.53639 442.90795,454.51415 442.04286,456.13059 C 440.76229,458.52336 441.58171,480.3236 443.00749,481.79422 C 444.55492,483.39031 444.13924,501.67467 442.50486,503.90309 C 441.32837,505.50721 441.30844,506.10465 442.39008,507.34422 C 444.49798,509.75991 445.5711,540.4007 444.42139,565.34422 C 443.50005,585.33308 443.6793,589.4415 445.53189,590.79614 C 447.04582,591.90315 447.16602,593.65356 446.64052,606.94099 C 445.68184,631.18182 435.41506,708.21871 429.79465,733.34422 C 427.55278,743.3663 426.48295,745.73672 425.5745,742.69488 z M 430.35072,639.79823 C 431.02513,637.11114 430.43754,635.34422 428.86951,635.34422 C 428.35197,635.34422 427.92853,636.91922 427.92853,638.84422 C 427.92853,642.91453 429.42104,643.50238 430.35072,639.79823 z M 431.93785,615.3268 C 432.74941,613.81039 432.67379,612.81862 431.63334,611.33316 C 429.87608,608.82432 428.92853,609.76238 428.92853,614.01089 C 428.92853,617.75629 430.31351,618.36191 431.93785,615.3268 z M 430.91322,591.09422 C 430.89783,586.82234 429.57811,583.36131 428.41001,584.52941 C 428.06501,584.87441 428.23854,586.80744 428.79562,588.82505 C 429.35271,590.84265 429.56237,593.13484 429.26153,593.91882 C 428.96069,594.70279 429.2127,595.34422 429.82154,595.34422 C 430.45962,595.34422 430.92204,593.54395 430.91322,591.09422 z M 435.92853,593.90324 C 435.92853,593.1107 435.43932,592.15991 434.8414,591.79037 C 433.42938,590.91769 431.502,592.84507 432.37468,594.25709 C 433.35489,595.84311 435.92853,595.58686 435.92853,593.90324 z M 429.50353,520.58588 C 428.48782,519.57017 426.6487,522.08243 427.45405,523.3855 C 428.00542,524.27764 428.45893,524.14783 429.15858,522.89763 C 429.68288,521.96075 429.83811,520.92047 429.50353,520.58588 z M 430.89673,504.5352 C 430.86693,502.01434 430.77645,501.961 429.46541,503.69142 C 428.69568,504.70738 428.30714,506.16729 428.602,506.93568 C 429.43319,509.10172 430.93216,507.53367 430.89673,504.5352 z M 434.92853,468.28079 C 434.92853,465.53111 433.17389,465.01724 431.9017,467.39435 C 430.34549,470.30216 431.40747,473.02155 433.44036,471.3344 C 434.25886,470.65511 434.92853,469.28099 434.92853,468.28079 z M 429.11603,332.66111 C 428.39416,332.37224 427.53166,332.40776 427.19936,332.74005 C 426.86707,333.07235 427.4577,333.30869 428.51186,333.26527 C 429.67681,333.21729 429.91376,332.98033 429.11603,332.66111 z "
         style="fill:#bdc4ca"
         id="path1398" />
      <path
         d="M 424.0086,735.34422 C 418.17339,710.32643 410.28887,654.97774 404.92263,601.36212 C 402.97019,581.85477 402.89862,576.54845 403.41872,489.86212 C 403.94377,402.35181 403.485,376.89653 400.91325,350.84422 C 399.12475,332.72634 399.09518,332.60286 396.38175,331.92184 C 393.96724,331.31583 393.9304,331.14469 394.04684,321.07517 C 394.11192,315.44815 394.45091,309.51114 394.80015,307.88182 C 395.65965,303.87204 400.50078,300.80941 408.09374,299.47194 C 411.5005,298.87185 414.64689,297.81012 415.08571,297.11254 C 415.52454,296.41497 415.85525,291.11922 415.82064,285.34422 C 415.78602,279.56922 415.78041,273.94422 415.80818,272.84422 C 416.27973,254.16357 415.64367,231.17946 414.63227,230.35294 C 413.97021,229.81189 411.44534,227.9011 409.02144,226.10672 C 401.59824,220.61144 400.42853,218.33139 400.42853,209.35703 C 400.42853,202.24165 400.70903,201.1174 403.46144,197.2012 C 405.59152,194.17047 408.54068,191.82032 413.36863,189.30629 C 417.73075,187.03483 420.56066,184.86771 421.11241,183.37618 C 422.91142,178.51299 428.24864,176.83048 431.27354,180.17296 C 432.18379,181.17877 432.92853,182.76976 432.92853,183.7085 C 432.92853,184.77434 434.58826,186.12674 437.3482,187.30979 C 442.41086,189.4799 449.44738,195.48583 451.35962,199.26907 C 454.79315,206.06206 453.8939,216.0787 449.31114,222.08701 C 447.93249,223.89451 444.58242,226.49939 441.86652,227.87564 C 437.1568,230.26224 436.01615,232.10665 436.93845,235.84422 C 437.22859,237.01997 438.06283,261.92252 437.90997,264.84422 C 437.85241,265.94422 437.72054,270.89422 437.61693,275.84422 C 437.51331,280.79422 437.05385,285.42391 436.59591,286.13241 C 435.63604,287.61747 437.80172,297.03122 439.3788,298.22903 C 439.95615,298.66754 443.54905,299.77549 447.36302,300.69114 C 451.17698,301.60679 455.32181,303.02711 456.57375,303.84742 C 459.80961,305.96763 461.2588,312.38876 460.62521,321.79874 C 459.97511,331.45391 459.09546,332.34422 450.20602,332.34422 C 445.49272,332.34422 443.71806,332.72913 443.29016,333.84422 C 442.97357,334.66922 441.6377,335.34422 440.32154,335.34422 C 438.5952,335.34422 437.92853,335.9014 437.92853,337.34422 C 437.92853,338.44422 438.37853,339.34422 438.92853,339.34422 C 439.47853,339.34422 439.92853,339.79422 439.92853,340.34422 C 439.92853,340.89422 438.38385,341.34422 436.49592,341.34422 C 432.67772,341.34422 431.39012,339.3376 432.46366,335.06028 C 432.98846,332.96932 432.67092,332.52813 430.31744,332.07823 C 425.91028,331.23575 424.97217,332.02466 426.0506,335.66647 C 427.17406,339.46033 426.28231,347.47813 424.45966,349.97076 C 423.50827,351.27186 423.43416,352.35985 424.18471,354.00714 C 424.9679,355.72605 424.82259,356.85697 423.57357,358.7632 C 422.23939,360.79942 422.15137,361.7392 423.09989,363.82096 C 424.05363,365.9142 423.98259,366.6014 422.70809,367.61101 C 421.85187,368.28928 420.85574,370.53205 420.49448,372.59495 C 419.91223,375.91967 420.11666,376.47282 422.29431,377.46502 C 425.35665,378.86031 425.64566,380.36598 426.91563,401.54099 C 428.20762,423.08308 428.15815,451.42813 426.78246,477.84422 C 425.78349,497.02658 425.51087,499.00025 423.63279,500.64694 C 422.50197,501.63844 421.44285,503.43844 421.2792,504.64694 C 421.11555,505.85544 420.79183,508.27343 420.55982,510.02025 C 420.32782,511.76706 419.86286,513.64146 419.52658,514.18557 C 419.1903,514.72969 419.97656,516.45048 421.27384,518.00955 C 423.92855,521.19999 424.57094,525.62215 425.46255,546.84422 C 425.76294,553.99422 426.47904,562.58999 427.05387,565.94593 C 427.65322,569.44493 427.75579,573.71047 427.29436,575.94593 C 426.53264,579.63611 426.39502,589.09516 426.92484,601.34422 C 427.05569,604.36922 427.03093,616.51922 426.86984,628.34422 C 426.59162,648.76678 427.02341,654.34422 428.88269,654.34422 C 429.33336,654.34422 430.02898,647.59422 430.42853,639.34422 C 431.07932,625.90635 431.34018,624.34422 432.93335,624.34422 C 434.00409,624.34422 434.96556,625.35564 435.34968,626.88609 C 435.91107,629.12282 436.16417,629.25144 437.45809,627.95752 C 439.36081,626.0548 439.34492,621.61775 437.42853,619.70136 C 436.60353,618.87636 435.92853,617.78351 435.92853,617.27279 C 435.92853,615.85629 438.9142,616.16582 439.02894,617.59422 C 439.08417,618.28172 439.76053,615.95809 440.53198,612.43059 C 442.0421,605.52541 441.86796,604.3878 439.622,606.48585 C 438.65825,607.38613 438.33298,609.15108 438.63587,611.83673 C 438.97645,614.85657 438.82554,615.47454 438.0235,614.34422 C 437.43811,613.51922 436.95227,611.81433 436.94384,610.55558 C 436.9352,609.26309 435.19795,606.46592 432.95254,604.12912 C 429.98175,601.03742 429.24485,599.668 430.03781,598.71254 C 430.87428,597.70466 431.51114,597.68908 433.04432,598.639 C 435.46857,600.141 436.89044,598.34823 436.91322,593.76089 C 436.92164,592.06505 437.2127,590.39339 437.56001,590.04607 C 438.61279,588.99329 441.92419,591.29708 441.99192,593.1294 C 442.03741,594.3602 442.31932,594.18551 442.99067,592.51047 C 443.50513,591.22691 444.4891,590.36847 445.17729,590.60282 C 446.11149,590.92096 446.39738,594.80618 446.30559,605.93657 C 446.11892,628.57305 434.44451,717.24674 429.26832,735.34422 C 426.35967,745.51373 426.38056,745.51373 424.0086,735.34422 z M 406.63426,563.09422 C 406.39591,561.85672 406.20089,562.86922 406.20089,565.34422 C 406.20089,567.81922 406.39591,568.83172 406.63426,567.59422 C 406.87262,566.35672 406.87262,564.33172 406.63426,563.09422 z M 423.92853,496.34422 C 423.92853,495.79422 423.47853,495.34422 422.92853,495.34422 C 422.37853,495.34422 421.92853,495.79422 421.92853,496.34422 C 421.92853,496.89422 422.37853,497.34422 422.92853,497.34422 C 423.47853,497.34422 423.92853,496.89422 423.92853,496.34422 z M 421.92853,351.34422 C 421.92853,350.79422 421.50509,350.34422 420.98755,350.34422 C 420.47001,350.34422 419.76845,350.79422 419.42853,351.34422 C 419.08861,351.89422 419.51205,352.34422 420.36951,352.34422 C 421.22697,352.34422 421.92853,351.89422 421.92853,351.34422 z M 435.48719,578.45766 C 433.36029,574.34468 433.52036,571.68422 435.9327,571.05338 C 437.39454,570.6711 438.08089,571.11309 438.46909,572.68675 C 440.30626,580.13409 438.33096,583.95691 435.48719,578.45766 z M 435.07491,555.84422 C 434.97938,554.74422 434.62115,552.71922 434.27883,551.34422 C 433.79966,549.41951 433.93463,549.1026 434.86533,549.96706 C 435.5383,550.59213 435.89121,552.58704 435.66141,554.46706 C 435.43437,556.3245 435.17044,556.94422 435.07491,555.84422 z M 435.92853,537.90324 C 435.92853,536.0107 436.37853,534.18414 436.92853,533.84422 C 437.53246,533.47097 437.92853,534.83384 437.92853,537.2852 C 437.92853,539.51766 437.47853,541.34422 436.92853,541.34422 C 436.37853,541.34422 435.92853,539.79578 435.92853,537.90324 z M 431.49856,531.45753 C 430.74588,530.23966 433.59357,528.01917 434.88473,528.81715 C 436.65581,529.91174 436.03706,532.34422 433.98755,532.34422 C 432.92001,532.34422 431.79996,531.94521 431.49856,531.45753 z M 434.67853,347.59821 C 432.69464,347.14403 432.26113,344.33604 434.17853,344.35953 C 434.86603,344.36795 436.09977,344.79922 436.92017,345.31789 C 438.79035,346.50026 437.15393,348.16492 434.67853,347.59821 z "
         style="fill:#cfc6b3"
         id="path1400" />
      <path
         d="M 423.97777,735.21375 C 418.17187,710.31709 410.27734,654.86248 404.92263,601.36212 C 402.97019,581.85477 402.89862,576.54845 403.41872,489.86212 C 403.94377,402.35181 403.485,376.89653 400.91325,350.84422 C 399.12475,332.72634 399.09518,332.60286 396.38175,331.92184 C 393.96724,331.31583 393.9304,331.14469 394.04684,321.07517 C 394.11192,315.44815 394.45091,309.51114 394.80015,307.88182 C 395.65965,303.87204 400.50078,300.80941 408.09374,299.47194 C 411.5005,298.87185 414.64689,297.81012 415.08571,297.11254 C 415.52454,296.41497 415.85525,291.11922 415.82064,285.34422 C 415.78602,279.56922 415.78041,273.94422 415.80818,272.84422 C 416.27973,254.16357 415.64367,231.17946 414.63227,230.35294 C 413.97021,229.81189 411.44534,227.9011 409.02144,226.10672 C 401.59824,220.61144 400.42853,218.33139 400.42853,209.35703 C 400.42853,202.24165 400.70903,201.1174 403.46144,197.2012 C 405.59152,194.17047 408.54068,191.82032 413.36863,189.30629 C 417.73075,187.03483 420.56066,184.86771 421.11241,183.37618 C 422.91142,178.51299 428.24864,176.83048 431.27354,180.17296 C 432.18379,181.17877 432.92853,182.76976 432.92853,183.7085 C 432.92853,184.77434 434.58826,186.12674 437.3482,187.30979 C 442.41086,189.4799 449.44738,195.48583 451.35962,199.26907 C 454.80356,206.08267 453.89268,216.08031 449.27655,222.13236 C 447.87888,223.96481 444.79251,226.40797 442.41797,227.56162 C 438.39802,229.51466 437.98643,229.54497 436.44314,228.00169 C 431.20586,222.7644 425.23225,232.101 429.96823,238.12182 C 431.756,240.3946 431.81857,240.82625 430.46971,241.58112 C 429.62206,242.05548 428.92853,243.75007 428.92853,245.34686 C 428.92853,246.94365 428.40427,249.40074 427.76351,250.80706 C 426.76882,252.99017 426.9042,253.69151 428.6895,255.60411 C 430.64778,257.70202 430.69596,258.16162 429.44851,262.84422 C 428.71591,265.59422 427.82334,268.5737 427.46501,269.46528 C 426.8109,271.09283 428.48016,273.38146 431.72789,275.30989 C 433.28304,276.2333 433.23855,276.47046 431.20793,278.08195 C 429.59254,279.36393 428.81164,281.35939 428.34265,285.40367 C 427.73539,290.64037 427.85164,291.06382 430.34511,292.6976 C 431.80104,293.65157 432.72636,294.86231 432.40138,295.38815 C 432.07639,295.91399 432.78012,296.34422 433.96522,296.34422 C 435.15032,296.34422 437.31438,297.00207 438.77424,297.80612 C 440.2341,298.61016 444.34739,299.9781 447.9149,300.84598 C 451.4824,301.71386 455.40223,303.0798 456.62563,303.88141 C 459.8061,305.96533 461.25443,312.45358 460.62521,321.79874 C 459.97511,331.45391 459.09546,332.34422 450.20602,332.34422 C 445.49272,332.34422 443.71806,332.72913 443.29016,333.84422 C 442.97357,334.66922 441.6377,335.34422 440.32154,335.34422 C 438.5952,335.34422 437.92853,335.9014 437.92853,337.34422 C 437.92853,338.44422 438.37853,339.34422 438.92853,339.34422 C 439.47853,339.34422 439.92853,339.79422 439.92853,340.34422 C 439.92853,340.89422 438.38385,341.34422 436.49592,341.34422 C 432.67772,341.34422 431.39012,339.3376 432.46366,335.06028 C 432.98846,332.96932 432.67092,332.52813 430.31744,332.07823 C 425.91028,331.23575 424.97217,332.02466 426.0506,335.66647 C 427.17406,339.46033 426.28231,347.47813 424.45966,349.97076 C 423.50827,351.27186 423.43416,352.35985 424.18471,354.00714 C 424.9679,355.72605 424.82259,356.85697 423.57357,358.7632 C 422.23939,360.79942 422.15137,361.7392 423.09989,363.82096 C 424.05363,365.9142 423.98259,366.6014 422.70809,367.61101 C 421.85187,368.28928 420.85574,370.53205 420.49448,372.59495 C 419.91223,375.91967 420.11666,376.47282 422.29431,377.46502 C 425.35665,378.86031 425.64566,380.36598 426.91563,401.54099 C 428.20762,423.08308 428.15815,451.42813 426.78246,477.84422 C 425.78349,497.02658 425.51087,499.00025 423.63279,500.64694 C 422.50197,501.63844 421.44285,503.43844 421.2792,504.64694 C 421.11555,505.85544 420.79183,508.27343 420.55982,510.02025 C 420.32782,511.76706 419.86286,513.64146 419.52658,514.18557 C 419.1903,514.72969 419.97656,516.45048 421.27384,518.00955 C 423.92855,521.19999 424.57094,525.62215 425.46255,546.84422 C 425.76294,553.99422 426.47904,562.58999 427.05387,565.94593 C 427.65322,569.44493 427.75579,573.71047 427.29436,575.94593 C 426.51722,579.7108 426.38557,589.92663 426.96705,601.34422 C 427.12111,604.36922 427.01936,614.71922 426.74094,624.34422 C 426.06101,647.84922 426.64882,652.5233 430.74459,656.18 C 434.32384,659.37555 434.71525,661.77601 432.23456,665.31769 C 431.30287,666.64786 430.1779,670.01049 429.73462,672.7902 C 429.29134,675.56991 428.50753,680.09422 427.9928,682.84422 C 427.47808,685.59422 427.23561,699.99588 427.45398,714.84791 C 427.67236,729.69993 427.47116,742.46622 427.00689,743.21744 C 426.45132,744.11636 425.4158,741.38024 423.97777,735.21375 z M 406.63426,563.09422 C 406.39591,561.85672 406.20089,562.86922 406.20089,565.34422 C 406.20089,567.81922 406.39591,568.83172 406.63426,567.59422 C 406.87262,566.35672 406.87262,564.33172 406.63426,563.09422 z M 423.92853,496.34422 C 423.92853,495.79422 423.47853,495.34422 422.92853,495.34422 C 422.37853,495.34422 421.92853,495.79422 421.92853,496.34422 C 421.92853,496.89422 422.37853,497.34422 422.92853,497.34422 C 423.47853,497.34422 423.92853,496.89422 423.92853,496.34422 z M 421.92853,351.34422 C 421.92853,350.79422 421.50509,350.34422 420.98755,350.34422 C 420.47001,350.34422 419.76845,350.79422 419.42853,351.34422 C 419.08861,351.89422 419.51205,352.34422 420.36951,352.34422 C 421.22697,352.34422 421.92853,351.89422 421.92853,351.34422 z M 430.08643,718.34422 C 430.08643,716.96922 430.3134,716.40672 430.59081,717.09422 C 430.86822,717.78172 430.86822,718.90672 430.59081,719.59422 C 430.3134,720.28172 430.08643,719.71922 430.08643,718.34422 z M 437.00748,628.92755 C 436.96406,627.87339 437.20041,627.28276 437.5327,627.61505 C 437.86499,627.94734 437.90052,628.80984 437.61164,629.53172 C 437.29242,630.32945 437.05546,630.0925 437.00748,628.92755 z M 436.53552,618.76243 C 435.67784,616.52737 435.74548,616.34422 437.42853,616.34422 C 438.26186,616.34422 438.92853,617.23311 438.92853,618.34422 C 438.92853,620.72847 437.39294,620.99683 436.53552,618.76243 z M 437.53552,613.76243 C 437.20168,612.89245 436.92853,611.30006 436.92853,610.2238 C 436.92853,609.14753 435.13933,606.40492 432.95254,604.12912 C 429.98175,601.03742 429.24485,599.668 430.03781,598.71254 C 430.87428,597.70466 431.51114,597.68908 433.04432,598.639 C 435.46857,600.141 436.89044,598.34823 436.91322,593.76089 C 436.93228,589.92282 437.67178,589.13644 440.06001,590.41459 C 442.81197,591.88739 442.79812,604.27594 440.0423,606.26222 C 438.56468,607.32723 438.26826,608.4582 438.67397,611.48298 C 439.20365,615.43203 438.62262,616.59538 437.53552,613.76243 z M 435.48719,578.45766 C 433.36029,574.34468 433.52036,571.68422 435.9327,571.05338 C 437.39454,570.6711 438.08089,571.11309 438.46909,572.68675 C 440.30626,580.13409 438.33096,583.95691 435.48719,578.45766 z M 435.07491,555.84422 C 434.97938,554.74422 434.62115,552.71922 434.27883,551.34422 C 433.79966,549.41951 433.93463,549.1026 434.86533,549.96706 C 435.5383,550.59213 435.89121,552.58704 435.66141,554.46706 C 435.43437,556.3245 435.17044,556.94422 435.07491,555.84422 z M 435.92853,537.90324 C 435.92853,536.0107 436.37853,534.18414 436.92853,533.84422 C 437.53246,533.47097 437.92853,534.83384 437.92853,537.2852 C 437.92853,539.51766 437.47853,541.34422 436.92853,541.34422 C 436.37853,541.34422 435.92853,539.79578 435.92853,537.90324 z M 431.49856,531.45753 C 430.74588,530.23966 433.59357,528.01917 434.88473,528.81715 C 436.65581,529.91174 436.03706,532.34422 433.98755,532.34422 C 432.92001,532.34422 431.79996,531.94521 431.49856,531.45753 z M 434.67853,347.59821 C 432.69464,347.14403 432.26113,344.33604 434.17853,344.35953 C 434.86603,344.36795 436.09977,344.79922 436.92017,345.31789 C 438.79035,346.50026 437.15393,348.16492 434.67853,347.59821 z "
         style="fill:#b7bbc2"
         id="path1402" />
      <path
         d="M 425.54255,740.59422 C 417.2288,712.65599 399.26516,566.72634 403.79514,563.92666 C 404.51348,563.4827 404.9342,564.07175 404.944,565.5352 C 404.98571,571.76004 407.15953,599.10255 408.4622,609.78746 C 410.74629,628.52221 411.13207,630.71455 412.49438,632.702 C 413.22849,633.77297 413.56241,636.10231 413.28281,638.202 C 412.86691,641.32533 412.96849,641.5738 413.99579,639.94604 C 414.78715,638.69213 414.99941,635.7297 414.62117,631.21796 C 414.0178,624.02108 414.66735,622.59889 417.79355,624.27198 C 419.31021,625.08367 419.78029,626.67734 420.09316,632.06822 C 420.40194,637.38863 421.07094,639.69965 423.20747,642.82635 C 426.77612,648.0489 426.85377,653.24283 423.4186,656.94944 C 422.03814,658.43898 421.19975,659.92466 421.55551,660.25096 C 421.91126,660.57725 422.40323,660.28172 422.64877,659.59422 C 423.63955,656.82004 425.92853,658.36844 425.92853,661.81284 C 425.92853,664.49818 425.58693,665.15037 424.4158,664.70096 C 423.58379,664.38169 422.27012,664.64577 421.49652,665.2878 C 420.39185,666.20459 419.86456,666.06764 419.03966,664.64967 C 417.68708,662.32464 417.62676,664.4203 418.94635,667.89109 C 419.70323,669.88182 420.4721,670.43534 421.94536,670.05007 C 424.65814,669.34066 425.07736,670.37038 425.45034,678.65932 C 425.62815,682.61102 426.09267,689.25072 426.4826,693.41421 C 426.93936,698.29124 426.80569,701.70523 426.10685,703.01102 C 425.46766,704.20536 425.38995,705.4088 425.91766,705.94102 C 427.29379,707.32896 428.47511,742.34422 427.14581,742.34422 C 426.55043,742.34422 425.82896,741.55672 425.54255,740.59422 z M 422.59081,698.09422 C 422.3134,697.40672 422.08643,697.96922 422.08643,699.34422 C 422.08643,700.71922 422.3134,701.28172 422.59081,700.59422 C 422.86822,699.90672 422.86822,698.78172 422.59081,698.09422 z M 423.44298,685.32084 C 424.33962,683.87005 421.7053,678.34422 420.11703,678.34422 C 419.27044,678.34422 418.99843,679.06638 419.36193,680.34892 C 419.67442,681.45151 420.18507,683.25151 420.4967,684.34892 C 421.1112,686.51289 422.43613,686.94996 423.44298,685.32084 z M 430.08643,718.34422 C 430.08643,716.96922 430.3134,716.40672 430.59081,717.09422 C 430.86822,717.78172 430.86822,718.90672 430.59081,719.59422 C 430.3134,720.28172 430.08643,719.71922 430.08643,718.34422 z M 429.65554,666.71152 C 429.33011,666.18498 429.32048,663.84089 429.63414,661.50243 C 430.06297,658.30521 430.60423,657.32642 431.81647,657.55601 C 434.15305,657.99854 434.34349,662.6102 432.13767,665.33427 C 431.09792,666.61831 429.98096,667.23807 429.65554,666.71152 z M 414.91518,612.82814 C 414.0473,611.78241 413.85758,609.60497 414.30365,605.80961 C 414.7961,601.61961 414.56941,599.72577 413.35325,597.86967 C 412.47484,596.52905 412.09018,594.89168 412.49846,594.23108 C 412.90673,593.57047 413.18454,591.53401 413.1158,589.70561 C 413.02647,587.32947 413.55715,586.07816 414.97632,585.31865 C 416.74378,584.37273 417.18584,584.77868 419.00192,589.01542 C 420.4281,592.34258 420.77409,594.37527 420.15166,595.77019 C 419.61019,596.98367 419.6596,598.82079 420.27776,600.45848 C 421.00555,602.3866 420.91293,604.74077 419.95166,608.7478 C 418.58896,614.42817 417.18624,615.5646 414.91518,612.82814 z M 417.92853,577.94677 C 417.92853,577.00658 416.86509,576.59757 414.67853,576.69677 C 411.65678,576.83386 411.45053,576.63969 411.74181,573.93199 C 411.91412,572.33026 413.07788,569.00724 414.32796,566.5475 L 416.60082,562.07525 L 418.92583,565.45974 C 420.20458,567.3212 422.11999,569.55259 423.18228,570.41837 C 425.23795,572.09376 425.29225,577.01998 423.2507,576.62619 C 422.62901,576.50627 421.57209,577.06877 420.902,577.87619 C 419.36249,579.73118 417.92853,579.76522 417.92853,577.94677 z M 409.51198,553.70109 C 409.16519,552.79737 409.07323,551.86619 409.30761,551.6318 C 409.88712,551.0523 413.92853,553.63493 413.92853,554.58477 C 413.92853,556.07396 410.13096,555.31413 409.51198,553.70109 z M 410.76659,540.99143 C 409.85253,539.73197 408.79084,536.60887 408.4073,534.05121 C 407.74937,529.66383 407.8641,529.3307 410.43674,528.15852 C 412.92485,527.02487 413.37208,527.15856 415.54603,529.68593 C 418.20154,532.77314 418.38685,534.15373 416.87595,539.59422 C 415.66559,543.95251 413.30708,544.4919 410.76659,540.99143 z M 403.6809,537.59422 C 403.39148,534.98172 403.49747,530.81922 403.91644,528.34422 C 404.55592,524.56654 404.69829,525.32898 404.80336,533.09422 C 404.87221,538.18172 404.76621,542.34422 404.56782,542.34422 C 404.36943,542.34422 403.97031,540.20672 403.6809,537.59422 z M 403.68145,503.59422 C 403.54555,495.48172 403.50579,483.89422 403.59309,477.84422 C 404.50175,414.87124 403.58267,370.18996 400.88817,346.34422 C 399.37206,332.92697 399.22811,332.45751 396.4133,331.75104 C 393.98136,331.14066 393.92865,330.92242 393.93411,321.48581 C 393.94435,303.7699 395.27193,302.11954 412.14269,298.85009 C 415.84335,298.13293 417.47598,292.40397 415.83588,285.89056 C 414.97281,282.46298 414.97666,280.21015 415.85155,276.73568 C 416.71293,273.3148 416.72459,271.25631 415.89679,268.74805 C 415.07234,266.24993 415.07958,263.93359 415.92457,259.86328 C 416.55321,256.83515 416.72989,253.34208 416.31719,252.10091 C 415.90449,250.85973 415.67408,245.50941 415.80516,240.2113 L 416.04348,230.57838 L 412.23601,228.29954 C 403.54038,223.09504 399.92853,217.5103 399.92853,209.26939 C 399.92853,199.67766 407.0964,190.75413 417.58025,187.29415 C 420.13651,186.4505 421.15822,185.44576 421.57404,183.36667 C 422.18456,180.31407 425.57945,177.94397 428.54709,178.49852 C 429.58188,178.69189 431.19219,180.3785 432.12555,182.24655 C 433.25153,184.5001 435.60703,186.6009 439.12555,188.48965 C 449.97645,194.31442 454.70464,202.8078 452.79292,213.04073 C 451.58929,219.48345 448.05523,224.46858 442.66393,227.32866 C 438.43823,229.57039 438.0553,229.61385 436.47266,228.0312 C 431.21065,222.7692 425.21197,232.07522 429.96823,238.12182 C 431.756,240.3946 431.81857,240.82625 430.46971,241.58112 C 429.62206,242.05548 428.92853,243.75007 428.92853,245.34686 C 428.92853,246.94365 428.40427,249.40074 427.76351,250.80706 C 426.76882,252.99017 426.9042,253.69151 428.6895,255.60411 C 430.64778,257.70202 430.69596,258.16162 429.44851,262.84422 C 428.71591,265.59422 427.82334,268.5737 427.46501,269.46528 C 426.8109,271.09283 428.48016,273.38146 431.72789,275.30989 C 433.28304,276.2333 433.23855,276.47046 431.20793,278.08195 C 429.59254,279.36393 428.81164,281.35939 428.34265,285.40367 C 427.73539,290.64037 427.85164,291.06382 430.34511,292.6976 C 431.80104,293.65157 432.72636,294.86231 432.40138,295.38815 C 432.07639,295.91399 432.84955,296.35853 434.11951,296.37602 C 435.38947,296.39352 437.27521,297.0489 438.31004,297.83243 C 439.34487,298.61596 442.71987,299.77873 445.81004,300.41636 C 455.04872,302.3227 458.66552,304.66088 460.00796,309.59499 C 461.59456,315.42647 460.51527,329.43397 458.35742,331.01645 C 457.28735,331.8012 451.58071,332.16968 441.09375,332.13119 C 420.33816,332.055 417.71059,332.18257 418.36093,333.23484 C 419.49749,335.07383 413.81617,337.58187 409.92375,336.95945 L 406.176,336.36016 L 406.65352,341.10219 C 407.24069,346.93306 410.43608,354.0103 413.1333,355.45381 C 414.66793,356.27512 414.86546,356.8032 413.96857,357.68686 C 413.07702,358.56527 412.48226,358.42242 411.50097,357.09422 C 408.95927,353.65398 406.84048,355.44266 408.89965,359.29025 C 409.53559,360.47853 409.49772,363.22261 408.78991,367.24091 C 407.89323,372.33144 407.98909,374.23321 409.3525,378.40158 C 410.25639,381.16508 410.71704,383.87741 410.37615,384.42898 C 409.4421,385.9403 411.8826,388.34422 414.35098,388.34422 C 415.54863,388.34422 416.96565,388.78134 417.49992,389.31561 C 418.03418,389.84987 419.46258,390.43827 420.67415,390.62317 C 421.88571,390.80807 423.20305,391.2854 423.60156,391.68391 C 424.42901,392.51136 426.1425,411.86005 426.18396,420.84422 C 426.27381,440.31686 425.7943,468.03086 425.33594,469.85711 C 425.0035,471.18165 422.71328,473.04808 419.29924,474.77677 C 415.63385,476.63273 413.97632,478.02637 414.33198,478.95321 C 415.18578,481.17818 413.88436,483.34422 411.69373,483.34422 C 409.88116,483.34422 409.7419,483.77565 410.34239,487.5309 C 410.7106,489.83358 411.62857,493.09608 412.38231,494.7809 C 414.52323,499.56647 415.10105,504.87147 413.79386,507.74044 C 413.14136,509.17252 412.28222,510.34422 411.88465,510.34422 C 411.48708,510.34422 410.87691,511.35672 410.52873,512.59422 C 409.93283,514.71211 409.81549,514.73974 408.53036,513.06483 C 407.30349,511.46584 407.10238,511.44879 406.5468,512.89662 C 406.20675,513.78277 405.92853,515.37099 405.92853,516.42601 C 405.92853,517.48102 405.47853,518.34422 404.92853,518.34422 C 404.31823,518.34422 403.83224,512.59616 403.68145,503.59422 z M 419.92853,404.34422 C 419.92853,402.14422 419.47853,400.34422 418.92853,400.34422 C 418.37853,400.34422 417.92853,402.14422 417.92853,404.34422 C 417.92853,406.54422 418.37853,408.34422 418.92853,408.34422 C 419.47853,408.34422 419.92853,406.54422 419.92853,404.34422 z M 419.92853,344.96085 C 419.92853,344.2 420.92138,343.31785 422.13486,343.00051 C 424.78196,342.30828 425.3732,342.74305 424.58345,344.80109 C 423.84795,346.71778 419.92853,346.8523 419.92853,344.96085 z M 414.23467,341.69961 C 413.84828,340.69271 414.32231,339.52945 415.45718,338.69961 C 419.25445,335.92298 422.37883,338.08418 419.3715,341.40723 C 417.22661,343.77731 415.07886,343.89956 414.23467,341.69961 z M 433.48703,339.43888 C 432.3708,337.63278 433.75036,333.34422 435.44758,333.34422 C 437.29638,333.34422 437.37011,336.35806 435.58117,338.80458 C 434.60051,340.14571 434.03057,340.31834 433.48703,339.43888 z "
         style="fill:#b1b4b8"
         id="path1404" />
      <path
         d="M 395.13421,329.75424 C 393.9299,328.87235 393.73692,326.77041 394.1234,318.74443 C 394.38612,313.28852 395.13809,307.82117 395.79445,306.59476 C 397.38683,303.61936 401.53149,301.59491 409.1148,300.08845 C 414.12655,299.09284 415.62992,298.34468 416.63855,296.34422 C 418.14367,293.35905 418.3139,286.93281 416.95512,284.3939 C 416.29774,283.16558 416.40799,280.93172 417.29469,277.51341 C 418.38041,273.32783 418.37899,271.7934 417.28646,268.64799 C 416.39784,266.0896 416.25332,263.862 416.84506,261.84422 C 417.87229,258.34151 418.08522,232.18345 417.09868,230.68801 C 416.7301,230.1293 413.85884,228.04037 410.71811,226.04594 C 403.80595,221.65657 400.92853,216.74748 400.92853,209.34422 C 400.92853,200.2097 405.55821,194.00621 416.22772,188.84422 C 421.34662,186.36766 422.48375,185.36434 422.74499,183.09384 C 422.91904,181.58112 423.94854,179.86869 425.03276,179.28844 C 427.16097,178.14945 431.29175,178.9475 430.4359,180.3323 C 429.11135,182.47546 432.06283,186.31004 436.57233,188.30481 C 447.23898,193.02317 451.92853,199.21872 451.92853,208.59249 C 451.92853,212.13146 451.17304,215.41592 449.67853,218.37426 C 447.16924,223.34134 441.42434,227.8128 438.98314,226.69886 C 433.97805,224.41499 421.08065,225.81613 420.82257,228.67177 C 420.51557,232.06863 421.25246,236.10058 422.54981,238.12247 C 423.35382,239.3755 423.66843,240.9505 423.24894,241.62247 C 422.82945,242.29443 422.33833,244.64422 422.15756,246.84422 C 421.97679,249.04422 421.62733,253.09422 421.38098,255.84422 C 420.9503,260.652 420.85712,263.33903 420.99086,267.09422 C 421.02514,268.05672 421.01823,269.96922 420.97551,271.34422 C 420.61637,282.90385 421.01371,290.9039 422.08061,293.59422 C 422.68042,295.10672 423.22908,296.36806 423.29985,296.39721 C 423.37062,296.42635 426.80353,297.06893 430.92853,297.82516 C 447.35257,300.83617 455.9961,303.77451 458.64673,307.2479 C 459.41537,308.25512 459.87666,312.6198 459.89673,319.07517 C 459.92721,328.88089 459.83501,329.3271 457.67853,329.81096 C 452.82269,330.9005 396.62995,330.84953 395.13421,329.75424 z "
         style="fill:#625257"
         id="path1406" />
      <path
         d="M 395.45494,324.50055 C 394.70328,320.05152 395.65875,309.84549 397.08352,307.10457 C 398.93535,303.54208 404.77707,301.66855 420.17853,299.69762 C 425.8711,298.96914 426.75808,300.7743 421.17853,301.73282 C 417.78639,302.31556 412.92853,305.27249 412.92853,306.75451 C 412.92853,307.07885 413.82853,308.24422 414.92853,309.34422 C 418.07443,312.49012 417.49926,315.80993 413.38807,318.23559 C 410.32212,320.04455 409.99177,320.59388 410.92326,322.33437 C 411.51486,323.43979 412.54557,324.36397 413.21371,324.38811 C 415.75777,324.48003 406.27181,327.28236 401.32402,327.90054 L 396.13882,328.54839 L 395.45494,324.50055 z M 411.42853,220.74038 C 404.29314,215.77198 402.92853,213.83795 402.92853,208.6936 C 402.92853,199.58109 408.43883,193.46928 420.34886,189.37163 C 426.05668,187.40785 426.47955,187.39535 432.26702,189.01923 C 439.3647,191.01074 444.92853,195.42066 444.92853,199.0548 C 444.92853,201.03597 444.56346,201.41383 443.17853,200.86613 C 436.96185,198.40765 431.92853,199.5018 431.92853,203.31168 C 431.92853,204.25909 430.98246,205.89043 429.82615,206.93687 C 428.66984,207.98332 427.09044,210.06423 426.31637,211.56112 C 424.97326,214.1584 425.0442,214.35267 427.86909,215.81348 C 432.11479,218.00902 436.57195,217.81581 437.20136,215.40893 C 437.56826,214.00588 438.29217,213.62655 439.83357,214.02964 C 443.13083,214.89189 443.3185,216.24546 440.29992,217.39312 C 438.78799,217.96795 436.906,219.35907 436.11772,220.4845 C 435.1221,221.90595 433.93311,222.38709 432.2236,222.06029 C 430.8701,221.80156 427.70349,222.20959 425.18668,222.96704 C 418.68648,224.92332 417.05717,224.65962 411.42853,220.74038 z M 424.62545,183.95109 C 424.21625,182.90987 424.11705,181.82237 424.40499,181.53443 C 425.31705,180.62237 426.11955,182.11699 425.73738,184.01595 C 425.38714,185.75628 425.33365,185.75316 424.62545,183.95109 z "
         style="fill:#281c1d"
         id="path1408" />
    </g>
    <g
       transform="matrix(1.039863,-1.039863,-1.039863,-1.039863,424.7279,1356.145)"
       id="g1410">
      <path
         d="M 426.92853,178.34422 L 426.92853,745.34422 L 426.92853,178.34422 z "
         style="fill:#fdfdfd"
         id="path1412" />
      <path
         d="M 425.28288,743.14701 C 421.17592,736.6923 408.47846,654.2419 403.36809,600.84422 C 401.53454,581.68574 401.2765,541.01931 402.43534,453.84422 C 403.0044,411.03551 402.83802,397.33695 401.49403,376.34422 C 399.13978,339.57164 398.44861,334.24512 395.76899,332.22388 C 392.96049,330.10542 392.19776,321.60536 393.90693,311.4723 C 395.33691,302.99441 397.49344,300.91931 406.85953,299.00879 C 410.13304,298.34106 413.17522,297.43098 413.61994,296.98641 C 414.06467,296.54183 414.49298,281.57903 414.57175,263.73573 L 414.71497,231.29337 L 410.57175,228.41865 C 401.72995,222.28388 398.92853,217.67081 398.92853,209.24588 C 398.92853,199.7302 404.68028,191.99566 415.22537,187.33106 C 418.36176,185.94369 420.10565,184.4867 420.49723,182.92653 C 421.09089,180.56121 424.60137,178.34422 427.75308,178.34422 C 430.35047,178.34422 433.92853,181.21117 433.92853,183.29234 C 433.92853,184.50393 435.30735,185.67875 437.98827,186.75145 C 444.58983,189.39287 451.70697,196.77426 453.45715,202.79467 C 454.98743,208.05865 454.3303,215.85647 451.98753,220.23399 C 450.74167,222.56189 445.1521,227.3426 441.14233,229.50979 L 438.06066,231.17537 L 438.37091,245.65516 C 438.54155,253.61904 439.02102,260.68485 439.4364,261.35696 C 439.85179,262.02906 439.62425,264.94412 438.93078,267.83486 C 438.06589,271.44011 437.96044,274.30825 438.59502,276.96749 C 439.16846,279.3705 439.15879,282.43702 438.56959,285.0342 C 437.98747,287.60019 437.97084,290.8947 438.52671,293.5342 C 439.39815,297.67222 439.63379,297.893 444.43145,299.06642 C 459.35559,302.71659 460.92853,304.65321 460.92853,319.37784 C 460.92853,329.62561 460.19987,331.70538 456.10997,333.13112 L 453.2492,334.1284 L 452.61065,348.48631 C 452.25945,356.38316 451.49719,364.41922 450.91673,366.34422 C 450.21194,368.68156 449.74077,408.21195 449.49834,485.34422 C 449.25412,563.04898 448.75994,604.28015 447.98815,611.34422 C 442.97416,657.23659 433.21554,724.91656 429.61393,738.77695 C 428.29423,743.85564 426.73488,745.42904 425.28288,743.14701 z "
         style="fill:#c7cbcf"
         id="path1414" />
      <path
         d="M 425.5745,742.69488 C 422.17135,731.29994 413.7926,681.40361 409.9827,649.84422 C 408.32279,636.09422 406.16904,618.31922 405.1966,610.34422 C 403.61047,597.33632 403.42569,584.98792 403.40091,490.34422 C 403.37377,386.68268 402.95019,369.07944 399.83962,342.34422 C 398.89822,334.25285 397.52189,331.34422 394.63457,331.34422 C 393.07871,331.34422 394.2081,306.91533 395.8557,304.93111 C 397.96698,302.38846 402.27164,300.41703 408.14402,299.30335 C 411.01185,298.75948 413.82407,297.84871 414.39339,297.27943 C 415.05796,296.61491 415.48286,284.61755 415.58029,263.76687 L 415.73204,231.28938 L 413.21833,229.5668 C 407.84911,225.88742 402.09523,220.16087 400.92231,217.32919 C 400.19928,215.58366 399.86419,211.69563 400.10747,207.87489 C 400.67886,198.90145 404.02152,194.27178 413.67991,189.07676 C 417.66665,186.93239 420.92853,184.54032 420.92853,183.76106 C 420.92853,181.54802 424.6813,178.34422 427.27354,178.34422 C 429.8774,178.34422 432.92853,181.15601 432.92853,183.55561 C 432.92853,184.44251 435.24281,186.24179 438.32004,187.74734 C 447.42451,192.20174 453.90159,200.98791 453.92295,208.91272 C 453.92602,210.05039 453.24867,213.27054 452.41774,216.0686 C 450.77504,221.60018 446.13656,226.5237 440.25126,228.98274 C 437.14207,230.28184 436.09898,232.44229 436.93845,235.84422 C 437.23677,237.05311 438.06274,262.01982 437.89786,264.84422 C 437.83364,265.94422 437.68992,270.66922 437.57848,275.34422 C 437.46704,280.01922 437.04687,284.96922 436.64477,286.34422 C 436.22476,287.78047 436.49562,290.75896 437.28134,293.34422 C 438.75796,298.20274 438.70433,298.17019 451.19167,301.78596 C 459.36648,304.15301 460.42853,306.1207 460.42853,318.89929 C 460.42853,330.95475 459.69246,332.34422 453.30609,332.34422 C 450.08159,332.34422 448.92853,332.73932 448.92853,333.84422 C 448.92853,334.66922 448.53101,335.34422 448.04516,335.34422 C 447.55931,335.34422 446.8865,336.35672 446.55003,337.59422 C 446.12009,339.17549 446.56417,340.36434 448.04418,341.59422 L 450.1501,343.34422 L 448.00793,343.34422 C 446.82843,343.34422 445.63691,344.13065 445.35652,345.09422 C 445.07644,346.05672 443.50286,349.54422 441.85968,352.84422 C 438.25219,360.08912 438.2031,361.12405 441.42853,361.93358 C 444.42218,362.68493 444.62461,364.4043 441.99918,366.78029 C 440.09767,368.50113 440.10391,368.58739 442.4316,372.75667 L 444.79337,376.98701 L 442.67127,381.16562 C 441.50411,383.46385 440.00876,385.34422 439.34825,385.34422 C 437.49722,385.34422 437.07288,392.05999 438.8139,393.80102 C 440.12183,395.10895 440.09316,395.50482 438.56852,397.18954 C 437.00338,398.91899 436.99224,399.15469 438.44923,399.71379 C 439.57207,400.14466 439.9617,401.31178 439.7424,403.58734 C 439.30926,408.08185 436.5387,407.99613 436.10627,403.47484 C 435.92902,401.62168 434.94733,399.2074 433.92472,398.10976 C 431.66803,395.68748 430.50768,389.56179 431.46339,385.11595 C 431.85021,383.3165 433.46312,379.90916 435.04762,377.54409 C 438.62419,372.20559 438.65407,370.49788 435.21883,367.75871 C 432.43503,365.53898 431.70269,362.54672 431.81337,353.84422 C 431.84135,351.64422 431.36087,348.84706 430.74565,347.62831 C 429.89109,345.93544 429.93588,345.04029 430.93541,343.83593 C 431.92641,342.64185 431.96297,341.97866 431.08615,341.10184 C 430.44946,340.46515 429.92853,338.90922 429.92853,337.64422 C 429.92853,336.37922 429.59103,335.34439 429.17853,335.34459 C 427.83929,335.34525 427.42321,345.36094 427.70379,370.84422 C 428.01447,399.06137 428.86153,409.97428 430.71158,409.59422 C 431.56945,409.41799 431.92853,411.28381 431.92853,415.91754 C 431.92853,421.63825 432.15552,422.44761 433.67853,422.15733 C 435.78901,421.75508 436.5463,417.79351 434.89342,415.80191 C 433.04159,413.5706 434.51232,411.34422 437.83813,411.34422 C 441.16813,411.34422 442.72791,412.94484 441.0414,414.63135 C 440.42932,415.24343 439.92853,417.62433 439.92853,419.92225 C 439.92853,423.10777 439.39403,424.48558 437.67853,425.72225 L 435.42853,427.34422 L 437.67853,428.96619 C 440.48087,430.98633 440.50004,432.10698 437.78176,435.00045 C 436.25035,436.63056 435.92457,437.6523 436.64524,438.5649 C 437.20088,439.26853 437.95243,441.78915 438.31535,444.16628 C 438.67827,446.54342 439.90943,449.75194 441.05125,451.29634 C 442.7074,453.53639 442.90795,454.51415 442.04286,456.13059 C 440.76229,458.52336 441.58171,480.3236 443.00749,481.79422 C 444.55492,483.39031 444.13924,501.67467 442.50486,503.90309 C 441.32837,505.50721 441.30844,506.10465 442.39008,507.34422 C 444.49798,509.75991 445.5711,540.4007 444.42139,565.34422 C 443.50005,585.33308 443.6793,589.4415 445.53189,590.79614 C 447.04582,591.90315 447.16602,593.65356 446.64052,606.94099 C 445.68184,631.18182 435.41506,708.21871 429.79465,733.34422 C 427.55278,743.3663 426.48295,745.73672 425.5745,742.69488 z M 430.35072,639.79823 C 431.02513,637.11114 430.43754,635.34422 428.86951,635.34422 C 428.35197,635.34422 427.92853,636.91922 427.92853,638.84422 C 427.92853,642.91453 429.42104,643.50238 430.35072,639.79823 z M 431.93785,615.3268 C 432.74941,613.81039 432.67379,612.81862 431.63334,611.33316 C 429.87608,608.82432 428.92853,609.76238 428.92853,614.01089 C 428.92853,617.75629 430.31351,618.36191 431.93785,615.3268 z M 430.91322,591.09422 C 430.89783,586.82234 429.57811,583.36131 428.41001,584.52941 C 428.06501,584.87441 428.23854,586.80744 428.79562,588.82505 C 429.35271,590.84265 429.56237,593.13484 429.26153,593.91882 C 428.96069,594.70279 429.2127,595.34422 429.82154,595.34422 C 430.45962,595.34422 430.92204,593.54395 430.91322,591.09422 z M 435.92853,593.90324 C 435.92853,593.1107 435.43932,592.15991 434.8414,591.79037 C 433.42938,590.91769 431.502,592.84507 432.37468,594.25709 C 433.35489,595.84311 435.92853,595.58686 435.92853,593.90324 z M 429.50353,520.58588 C 428.48782,519.57017 426.6487,522.08243 427.45405,523.3855 C 428.00542,524.27764 428.45893,524.14783 429.15858,522.89763 C 429.68288,521.96075 429.83811,520.92047 429.50353,520.58588 z M 430.89673,504.5352 C 430.86693,502.01434 430.77645,501.961 429.46541,503.69142 C 428.69568,504.70738 428.30714,506.16729 428.602,506.93568 C 429.43319,509.10172 430.93216,507.53367 430.89673,504.5352 z M 434.92853,468.28079 C 434.92853,465.53111 433.17389,465.01724 431.9017,467.39435 C 430.34549,470.30216 431.40747,473.02155 433.44036,471.3344 C 434.25886,470.65511 434.92853,469.28099 434.92853,468.28079 z M 429.11603,332.66111 C 428.39416,332.37224 427.53166,332.40776 427.19936,332.74005 C 426.86707,333.07235 427.4577,333.30869 428.51186,333.26527 C 429.67681,333.21729 429.91376,332.98033 429.11603,332.66111 z "
         style="fill:#bdc4ca"
         id="path1416" />
      <path
         d="M 424.0086,735.34422 C 418.17339,710.32643 410.28887,654.97774 404.92263,601.36212 C 402.97019,581.85477 402.89862,576.54845 403.41872,489.86212 C 403.94377,402.35181 403.485,376.89653 400.91325,350.84422 C 399.12475,332.72634 399.09518,332.60286 396.38175,331.92184 C 393.96724,331.31583 393.9304,331.14469 394.04684,321.07517 C 394.11192,315.44815 394.45091,309.51114 394.80015,307.88182 C 395.65965,303.87204 400.50078,300.80941 408.09374,299.47194 C 411.5005,298.87185 414.64689,297.81012 415.08571,297.11254 C 415.52454,296.41497 415.85525,291.11922 415.82064,285.34422 C 415.78602,279.56922 415.78041,273.94422 415.80818,272.84422 C 416.27973,254.16357 415.64367,231.17946 414.63227,230.35294 C 413.97021,229.81189 411.44534,227.9011 409.02144,226.10672 C 401.59824,220.61144 400.42853,218.33139 400.42853,209.35703 C 400.42853,202.24165 400.70903,201.1174 403.46144,197.2012 C 405.59152,194.17047 408.54068,191.82032 413.36863,189.30629 C 417.73075,187.03483 420.56066,184.86771 421.11241,183.37618 C 422.91142,178.51299 428.24864,176.83048 431.27354,180.17296 C 432.18379,181.17877 432.92853,182.76976 432.92853,183.7085 C 432.92853,184.77434 434.58826,186.12674 437.3482,187.30979 C 442.41086,189.4799 449.44738,195.48583 451.35962,199.26907 C 454.79315,206.06206 453.8939,216.0787 449.31114,222.08701 C 447.93249,223.89451 444.58242,226.49939 441.86652,227.87564 C 437.1568,230.26224 436.01615,232.10665 436.93845,235.84422 C 437.22859,237.01997 438.06283,261.92252 437.90997,264.84422 C 437.85241,265.94422 437.72054,270.89422 437.61693,275.84422 C 437.51331,280.79422 437.05385,285.42391 436.59591,286.13241 C 435.63604,287.61747 437.80172,297.03122 439.3788,298.22903 C 439.95615,298.66754 443.54905,299.77549 447.36302,300.69114 C 451.17698,301.60679 455.32181,303.02711 456.57375,303.84742 C 459.80961,305.96763 461.2588,312.38876 460.62521,321.79874 C 459.97511,331.45391 459.09546,332.34422 450.20602,332.34422 C 445.49272,332.34422 443.71806,332.72913 443.29016,333.84422 C 442.97357,334.66922 441.6377,335.34422 440.32154,335.34422 C 438.5952,335.34422 437.92853,335.9014 437.92853,337.34422 C 437.92853,338.44422 438.37853,339.34422 438.92853,339.34422 C 439.47853,339.34422 439.92853,339.79422 439.92853,340.34422 C 439.92853,340.89422 438.38385,341.34422 436.49592,341.34422 C 432.67772,341.34422 431.39012,339.3376 432.46366,335.06028 C 432.98846,332.96932 432.67092,332.52813 430.31744,332.07823 C 425.91028,331.23575 424.97217,332.02466 426.0506,335.66647 C 427.17406,339.46033 426.28231,347.47813 424.45966,349.97076 C 423.50827,351.27186 423.43416,352.35985 424.18471,354.00714 C 424.9679,355.72605 424.82259,356.85697 423.57357,358.7632 C 422.23939,360.79942 422.15137,361.7392 423.09989,363.82096 C 424.05363,365.9142 423.98259,366.6014 422.70809,367.61101 C 421.85187,368.28928 420.85574,370.53205 420.49448,372.59495 C 419.91223,375.91967 420.11666,376.47282 422.29431,377.46502 C 425.35665,378.86031 425.64566,380.36598 426.91563,401.54099 C 428.20762,423.08308 428.15815,451.42813 426.78246,477.84422 C 425.78349,497.02658 425.51087,499.00025 423.63279,500.64694 C 422.50197,501.63844 421.44285,503.43844 421.2792,504.64694 C 421.11555,505.85544 420.79183,508.27343 420.55982,510.02025 C 420.32782,511.76706 419.86286,513.64146 419.52658,514.18557 C 419.1903,514.72969 419.97656,516.45048 421.27384,518.00955 C 423.92855,521.19999 424.57094,525.62215 425.46255,546.84422 C 425.76294,553.99422 426.47904,562.58999 427.05387,565.94593 C 427.65322,569.44493 427.75579,573.71047 427.29436,575.94593 C 426.53264,579.63611 426.39502,589.09516 426.92484,601.34422 C 427.05569,604.36922 427.03093,616.51922 426.86984,628.34422 C 426.59162,648.76678 427.02341,654.34422 428.88269,654.34422 C 429.33336,654.34422 430.02898,647.59422 430.42853,639.34422 C 431.07932,625.90635 431.34018,624.34422 432.93335,624.34422 C 434.00409,624.34422 434.96556,625.35564 435.34968,626.88609 C 435.91107,629.12282 436.16417,629.25144 437.45809,627.95752 C 439.36081,626.0548 439.34492,621.61775 437.42853,619.70136 C 436.60353,618.87636 435.92853,617.78351 435.92853,617.27279 C 435.92853,615.85629 438.9142,616.16582 439.02894,617.59422 C 439.08417,618.28172 439.76053,615.95809 440.53198,612.43059 C 442.0421,605.52541 441.86796,604.3878 439.622,606.48585 C 438.65825,607.38613 438.33298,609.15108 438.63587,611.83673 C 438.97645,614.85657 438.82554,615.47454 438.0235,614.34422 C 437.43811,613.51922 436.95227,611.81433 436.94384,610.55558 C 436.9352,609.26309 435.19795,606.46592 432.95254,604.12912 C 429.98175,601.03742 429.24485,599.668 430.03781,598.71254 C 430.87428,597.70466 431.51114,597.68908 433.04432,598.639 C 435.46857,600.141 436.89044,598.34823 436.91322,593.76089 C 436.92164,592.06505 437.2127,590.39339 437.56001,590.04607 C 438.61279,588.99329 441.92419,591.29708 441.99192,593.1294 C 442.03741,594.3602 442.31932,594.18551 442.99067,592.51047 C 443.50513,591.22691 444.4891,590.36847 445.17729,590.60282 C 446.11149,590.92096 446.39738,594.80618 446.30559,605.93657 C 446.11892,628.57305 434.44451,717.24674 429.26832,735.34422 C 426.35967,745.51373 426.38056,745.51373 424.0086,735.34422 z M 406.63426,563.09422 C 406.39591,561.85672 406.20089,562.86922 406.20089,565.34422 C 406.20089,567.81922 406.39591,568.83172 406.63426,567.59422 C 406.87262,566.35672 406.87262,564.33172 406.63426,563.09422 z M 423.92853,496.34422 C 423.92853,495.79422 423.47853,495.34422 422.92853,495.34422 C 422.37853,495.34422 421.92853,495.79422 421.92853,496.34422 C 421.92853,496.89422 422.37853,497.34422 422.92853,497.34422 C 423.47853,497.34422 423.92853,496.89422 423.92853,496.34422 z M 421.92853,351.34422 C 421.92853,350.79422 421.50509,350.34422 420.98755,350.34422 C 420.47001,350.34422 419.76845,350.79422 419.42853,351.34422 C 419.08861,351.89422 419.51205,352.34422 420.36951,352.34422 C 421.22697,352.34422 421.92853,351.89422 421.92853,351.34422 z M 435.48719,578.45766 C 433.36029,574.34468 433.52036,571.68422 435.9327,571.05338 C 437.39454,570.6711 438.08089,571.11309 438.46909,572.68675 C 440.30626,580.13409 438.33096,583.95691 435.48719,578.45766 z M 435.07491,555.84422 C 434.97938,554.74422 434.62115,552.71922 434.27883,551.34422 C 433.79966,549.41951 433.93463,549.1026 434.86533,549.96706 C 435.5383,550.59213 435.89121,552.58704 435.66141,554.46706 C 435.43437,556.3245 435.17044,556.94422 435.07491,555.84422 z M 435.92853,537.90324 C 435.92853,536.0107 436.37853,534.18414 436.92853,533.84422 C 437.53246,533.47097 437.92853,534.83384 437.92853,537.2852 C 437.92853,539.51766 437.47853,541.34422 436.92853,541.34422 C 436.37853,541.34422 435.92853,539.79578 435.92853,537.90324 z M 431.49856,531.45753 C 430.74588,530.23966 433.59357,528.01917 434.88473,528.81715 C 436.65581,529.91174 436.03706,532.34422 433.98755,532.34422 C 432.92001,532.34422 431.79996,531.94521 431.49856,531.45753 z M 434.67853,347.59821 C 432.69464,347.14403 432.26113,344.33604 434.17853,344.35953 C 434.86603,344.36795 436.09977,344.79922 436.92017,345.31789 C 438.79035,346.50026 437.15393,348.16492 434.67853,347.59821 z "
         style="fill:#cfc6b3"
         id="path1418" />
      <path
         d="M 423.97777,735.21375 C 418.17187,710.31709 410.27734,654.86248 404.92263,601.36212 C 402.97019,581.85477 402.89862,576.54845 403.41872,489.86212 C 403.94377,402.35181 403.485,376.89653 400.91325,350.84422 C 399.12475,332.72634 399.09518,332.60286 396.38175,331.92184 C 393.96724,331.31583 393.9304,331.14469 394.04684,321.07517 C 394.11192,315.44815 394.45091,309.51114 394.80015,307.88182 C 395.65965,303.87204 400.50078,300.80941 408.09374,299.47194 C 411.5005,298.87185 414.64689,297.81012 415.08571,297.11254 C 415.52454,296.41497 415.85525,291.11922 415.82064,285.34422 C 415.78602,279.56922 415.78041,273.94422 415.80818,272.84422 C 416.27973,254.16357 415.64367,231.17946 414.63227,230.35294 C 413.97021,229.81189 411.44534,227.9011 409.02144,226.10672 C 401.59824,220.61144 400.42853,218.33139 400.42853,209.35703 C 400.42853,202.24165 400.70903,201.1174 403.46144,197.2012 C 405.59152,194.17047 408.54068,191.82032 413.36863,189.30629 C 417.73075,187.03483 420.56066,184.86771 421.11241,183.37618 C 422.91142,178.51299 428.24864,176.83048 431.27354,180.17296 C 432.18379,181.17877 432.92853,182.76976 432.92853,183.7085 C 432.92853,184.77434 434.58826,186.12674 437.3482,187.30979 C 442.41086,189.4799 449.44738,195.48583 451.35962,199.26907 C 454.80356,206.08267 453.89268,216.08031 449.27655,222.13236 C 447.87888,223.96481 444.79251,226.40797 442.41797,227.56162 C 438.39802,229.51466 437.98643,229.54497 436.44314,228.00169 C 431.20586,222.7644 425.23225,232.101 429.96823,238.12182 C 431.756,240.3946 431.81857,240.82625 430.46971,241.58112 C 429.62206,242.05548 428.92853,243.75007 428.92853,245.34686 C 428.92853,246.94365 428.40427,249.40074 427.76351,250.80706 C 426.76882,252.99017 426.9042,253.69151 428.6895,255.60411 C 430.64778,257.70202 430.69596,258.16162 429.44851,262.84422 C 428.71591,265.59422 427.82334,268.5737 427.46501,269.46528 C 426.8109,271.09283 428.48016,273.38146 431.72789,275.30989 C 433.28304,276.2333 433.23855,276.47046 431.20793,278.08195 C 429.59254,279.36393 428.81164,281.35939 428.34265,285.40367 C 427.73539,290.64037 427.85164,291.06382 430.34511,292.6976 C 431.80104,293.65157 432.72636,294.86231 432.40138,295.38815 C 432.07639,295.91399 432.78012,296.34422 433.96522,296.34422 C 435.15032,296.34422 437.31438,297.00207 438.77424,297.80612 C 440.2341,298.61016 444.34739,299.9781 447.9149,300.84598 C 451.4824,301.71386 455.40223,303.0798 456.62563,303.88141 C 459.8061,305.96533 461.25443,312.45358 460.62521,321.79874 C 459.97511,331.45391 459.09546,332.34422 450.20602,332.34422 C 445.49272,332.34422 443.71806,332.72913 443.29016,333.84422 C 442.97357,334.66922 441.6377,335.34422 440.32154,335.34422 C 438.5952,335.34422 437.92853,335.9014 437.92853,337.34422 C 437.92853,338.44422 438.37853,339.34422 438.92853,339.34422 C 439.47853,339.34422 439.92853,339.79422 439.92853,340.34422 C 439.92853,340.89422 438.38385,341.34422 436.49592,341.34422 C 432.67772,341.34422 431.39012,339.3376 432.46366,335.06028 C 432.98846,332.96932 432.67092,332.52813 430.31744,332.07823 C 425.91028,331.23575 424.97217,332.02466 426.0506,335.66647 C 427.17406,339.46033 426.28231,347.47813 424.45966,349.97076 C 423.50827,351.27186 423.43416,352.35985 424.18471,354.00714 C 424.9679,355.72605 424.82259,356.85697 423.57357,358.7632 C 422.23939,360.79942 422.15137,361.7392 423.09989,363.82096 C 424.05363,365.9142 423.98259,366.6014 422.70809,367.61101 C 421.85187,368.28928 420.85574,370.53205 420.49448,372.59495 C 419.91223,375.91967 420.11666,376.47282 422.29431,377.46502 C 425.35665,378.86031 425.64566,380.36598 426.91563,401.54099 C 428.20762,423.08308 428.15815,451.42813 426.78246,477.84422 C 425.78349,497.02658 425.51087,499.00025 423.63279,500.64694 C 422.50197,501.63844 421.44285,503.43844 421.2792,504.64694 C 421.11555,505.85544 420.79183,508.27343 420.55982,510.02025 C 420.32782,511.76706 419.86286,513.64146 419.52658,514.18557 C 419.1903,514.72969 419.97656,516.45048 421.27384,518.00955 C 423.92855,521.19999 424.57094,525.62215 425.46255,546.84422 C 425.76294,553.99422 426.47904,562.58999 427.05387,565.94593 C 427.65322,569.44493 427.75579,573.71047 427.29436,575.94593 C 426.51722,579.7108 426.38557,589.92663 426.96705,601.34422 C 427.12111,604.36922 427.01936,614.71922 426.74094,624.34422 C 426.06101,647.84922 426.64882,652.5233 430.74459,656.18 C 434.32384,659.37555 434.71525,661.77601 432.23456,665.31769 C 431.30287,666.64786 430.1779,670.01049 429.73462,672.7902 C 429.29134,675.56991 428.50753,680.09422 427.9928,682.84422 C 427.47808,685.59422 427.23561,699.99588 427.45398,714.84791 C 427.67236,729.69993 427.47116,742.46622 427.00689,743.21744 C 426.45132,744.11636 425.4158,741.38024 423.97777,735.21375 z M 406.63426,563.09422 C 406.39591,561.85672 406.20089,562.86922 406.20089,565.34422 C 406.20089,567.81922 406.39591,568.83172 406.63426,567.59422 C 406.87262,566.35672 406.87262,564.33172 406.63426,563.09422 z M 423.92853,496.34422 C 423.92853,495.79422 423.47853,495.34422 422.92853,495.34422 C 422.37853,495.34422 421.92853,495.79422 421.92853,496.34422 C 421.92853,496.89422 422.37853,497.34422 422.92853,497.34422 C 423.47853,497.34422 423.92853,496.89422 423.92853,496.34422 z M 421.92853,351.34422 C 421.92853,350.79422 421.50509,350.34422 420.98755,350.34422 C 420.47001,350.34422 419.76845,350.79422 419.42853,351.34422 C 419.08861,351.89422 419.51205,352.34422 420.36951,352.34422 C 421.22697,352.34422 421.92853,351.89422 421.92853,351.34422 z M 430.08643,718.34422 C 430.08643,716.96922 430.3134,716.40672 430.59081,717.09422 C 430.86822,717.78172 430.86822,718.90672 430.59081,719.59422 C 430.3134,720.28172 430.08643,719.71922 430.08643,718.34422 z M 437.00748,628.92755 C 436.96406,627.87339 437.20041,627.28276 437.5327,627.61505 C 437.86499,627.94734 437.90052,628.80984 437.61164,629.53172 C 437.29242,630.32945 437.05546,630.0925 437.00748,628.92755 z M 436.53552,618.76243 C 435.67784,616.52737 435.74548,616.34422 437.42853,616.34422 C 438.26186,616.34422 438.92853,617.23311 438.92853,618.34422 C 438.92853,620.72847 437.39294,620.99683 436.53552,618.76243 z M 437.53552,613.76243 C 437.20168,612.89245 436.92853,611.30006 436.92853,610.2238 C 436.92853,609.14753 435.13933,606.40492 432.95254,604.12912 C 429.98175,601.03742 429.24485,599.668 430.03781,598.71254 C 430.87428,597.70466 431.51114,597.68908 433.04432,598.639 C 435.46857,600.141 436.89044,598.34823 436.91322,593.76089 C 436.93228,589.92282 437.67178,589.13644 440.06001,590.41459 C 442.81197,591.88739 442.79812,604.27594 440.0423,606.26222 C 438.56468,607.32723 438.26826,608.4582 438.67397,611.48298 C 439.20365,615.43203 438.62262,616.59538 437.53552,613.76243 z M 435.48719,578.45766 C 433.36029,574.34468 433.52036,571.68422 435.9327,571.05338 C 437.39454,570.6711 438.08089,571.11309 438.46909,572.68675 C 440.30626,580.13409 438.33096,583.95691 435.48719,578.45766 z M 435.07491,555.84422 C 434.97938,554.74422 434.62115,552.71922 434.27883,551.34422 C 433.79966,549.41951 433.93463,549.1026 434.86533,549.96706 C 435.5383,550.59213 435.89121,552.58704 435.66141,554.46706 C 435.43437,556.3245 435.17044,556.94422 435.07491,555.84422 z M 435.92853,537.90324 C 435.92853,536.0107 436.37853,534.18414 436.92853,533.84422 C 437.53246,533.47097 437.92853,534.83384 437.92853,537.2852 C 437.92853,539.51766 437.47853,541.34422 436.92853,541.34422 C 436.37853,541.34422 435.92853,539.79578 435.92853,537.90324 z M 431.49856,531.45753 C 430.74588,530.23966 433.59357,528.01917 434.88473,528.81715 C 436.65581,529.91174 436.03706,532.34422 433.98755,532.34422 C 432.92001,532.34422 431.79996,531.94521 431.49856,531.45753 z M 434.67853,347.59821 C 432.69464,347.14403 432.26113,344.33604 434.17853,344.35953 C 434.86603,344.36795 436.09977,344.79922 436.92017,345.31789 C 438.79035,346.50026 437.15393,348.16492 434.67853,347.59821 z "
         style="fill:#b7bbc2"
         id="path1420" />
      <path
         d="M 425.54255,740.59422 C 417.2288,712.65599 399.26516,566.72634 403.79514,563.92666 C 404.51348,563.4827 404.9342,564.07175 404.944,565.5352 C 404.98571,571.76004 407.15953,599.10255 408.4622,609.78746 C 410.74629,628.52221 411.13207,630.71455 412.49438,632.702 C 413.22849,633.77297 413.56241,636.10231 413.28281,638.202 C 412.86691,641.32533 412.96849,641.5738 413.99579,639.94604 C 414.78715,638.69213 414.99941,635.7297 414.62117,631.21796 C 414.0178,624.02108 414.66735,622.59889 417.79355,624.27198 C 419.31021,625.08367 419.78029,626.67734 420.09316,632.06822 C 420.40194,637.38863 421.07094,639.69965 423.20747,642.82635 C 426.77612,648.0489 426.85377,653.24283 423.4186,656.94944 C 422.03814,658.43898 421.19975,659.92466 421.55551,660.25096 C 421.91126,660.57725 422.40323,660.28172 422.64877,659.59422 C 423.63955,656.82004 425.92853,658.36844 425.92853,661.81284 C 425.92853,664.49818 425.58693,665.15037 424.4158,664.70096 C 423.58379,664.38169 422.27012,664.64577 421.49652,665.2878 C 420.39185,666.20459 419.86456,666.06764 419.03966,664.64967 C 417.68708,662.32464 417.62676,664.4203 418.94635,667.89109 C 419.70323,669.88182 420.4721,670.43534 421.94536,670.05007 C 424.65814,669.34066 425.07736,670.37038 425.45034,678.65932 C 425.62815,682.61102 426.09267,689.25072 426.4826,693.41421 C 426.93936,698.29124 426.80569,701.70523 426.10685,703.01102 C 425.46766,704.20536 425.38995,705.4088 425.91766,705.94102 C 427.29379,707.32896 428.47511,742.34422 427.14581,742.34422 C 426.55043,742.34422 425.82896,741.55672 425.54255,740.59422 z M 422.59081,698.09422 C 422.3134,697.40672 422.08643,697.96922 422.08643,699.34422 C 422.08643,700.71922 422.3134,701.28172 422.59081,700.59422 C 422.86822,699.90672 422.86822,698.78172 422.59081,698.09422 z M 423.44298,685.32084 C 424.33962,683.87005 421.7053,678.34422 420.11703,678.34422 C 419.27044,678.34422 418.99843,679.06638 419.36193,680.34892 C 419.67442,681.45151 420.18507,683.25151 420.4967,684.34892 C 421.1112,686.51289 422.43613,686.94996 423.44298,685.32084 z M 430.08643,718.34422 C 430.08643,716.96922 430.3134,716.40672 430.59081,717.09422 C 430.86822,717.78172 430.86822,718.90672 430.59081,719.59422 C 430.3134,720.28172 430.08643,719.71922 430.08643,718.34422 z M 429.65554,666.71152 C 429.33011,666.18498 429.32048,663.84089 429.63414,661.50243 C 430.06297,658.30521 430.60423,657.32642 431.81647,657.55601 C 434.15305,657.99854 434.34349,662.6102 432.13767,665.33427 C 431.09792,666.61831 429.98096,667.23807 429.65554,666.71152 z M 414.91518,612.82814 C 414.0473,611.78241 413.85758,609.60497 414.30365,605.80961 C 414.7961,601.61961 414.56941,599.72577 413.35325,597.86967 C 412.47484,596.52905 412.09018,594.89168 412.49846,594.23108 C 412.90673,593.57047 413.18454,591.53401 413.1158,589.70561 C 413.02647,587.32947 413.55715,586.07816 414.97632,585.31865 C 416.74378,584.37273 417.18584,584.77868 419.00192,589.01542 C 420.4281,592.34258 420.77409,594.37527 420.15166,595.77019 C 419.61019,596.98367 419.6596,598.82079 420.27776,600.45848 C 421.00555,602.3866 420.91293,604.74077 419.95166,608.7478 C 418.58896,614.42817 417.18624,615.5646 414.91518,612.82814 z M 417.92853,577.94677 C 417.92853,577.00658 416.86509,576.59757 414.67853,576.69677 C 411.65678,576.83386 411.45053,576.63969 411.74181,573.93199 C 411.91412,572.33026 413.07788,569.00724 414.32796,566.5475 L 416.60082,562.07525 L 418.92583,565.45974 C 420.20458,567.3212 422.11999,569.55259 423.18228,570.41837 C 425.23795,572.09376 425.29225,577.01998 423.2507,576.62619 C 422.62901,576.50627 421.57209,577.06877 420.902,577.87619 C 419.36249,579.73118 417.92853,579.76522 417.92853,577.94677 z M 409.51198,553.70109 C 409.16519,552.79737 409.07323,551.86619 409.30761,551.6318 C 409.88712,551.0523 413.92853,553.63493 413.92853,554.58477 C 413.92853,556.07396 410.13096,555.31413 409.51198,553.70109 z M 410.76659,540.99143 C 409.85253,539.73197 408.79084,536.60887 408.4073,534.05121 C 407.74937,529.66383 407.8641,529.3307 410.43674,528.15852 C 412.92485,527.02487 413.37208,527.15856 415.54603,529.68593 C 418.20154,532.77314 418.38685,534.15373 416.87595,539.59422 C 415.66559,543.95251 413.30708,544.4919 410.76659,540.99143 z M 403.6809,537.59422 C 403.39148,534.98172 403.49747,530.81922 403.91644,528.34422 C 404.55592,524.56654 404.69829,525.32898 404.80336,533.09422 C 404.87221,538.18172 404.76621,542.34422 404.56782,542.34422 C 404.36943,542.34422 403.97031,540.20672 403.6809,537.59422 z M 403.68145,503.59422 C 403.54555,495.48172 403.50579,483.89422 403.59309,477.84422 C 404.50175,414.87124 403.58267,370.18996 400.88817,346.34422 C 399.37206,332.92697 399.22811,332.45751 396.4133,331.75104 C 393.98136,331.14066 393.92865,330.92242 393.93411,321.48581 C 393.94435,303.7699 395.27193,302.11954 412.14269,298.85009 C 415.84335,298.13293 417.47598,292.40397 415.83588,285.89056 C 414.97281,282.46298 414.97666,280.21015 415.85155,276.73568 C 416.71293,273.3148 416.72459,271.25631 415.89679,268.74805 C 415.07234,266.24993 415.07958,263.93359 415.92457,259.86328 C 416.55321,256.83515 416.72989,253.34208 416.31719,252.10091 C 415.90449,250.85973 415.67408,245.50941 415.80516,240.2113 L 416.04348,230.57838 L 412.23601,228.29954 C 403.54038,223.09504 399.92853,217.5103 399.92853,209.26939 C 399.92853,199.67766 407.0964,190.75413 417.58025,187.29415 C 420.13651,186.4505 421.15822,185.44576 421.57404,183.36667 C 422.18456,180.31407 425.57945,177.94397 428.54709,178.49852 C 429.58188,178.69189 431.19219,180.3785 432.12555,182.24655 C 433.25153,184.5001 435.60703,186.6009 439.12555,188.48965 C 449.97645,194.31442 454.70464,202.8078 452.79292,213.04073 C 451.58929,219.48345 448.05523,224.46858 442.66393,227.32866 C 438.43823,229.57039 438.0553,229.61385 436.47266,228.0312 C 431.21065,222.7692 425.21197,232.07522 429.96823,238.12182 C 431.756,240.3946 431.81857,240.82625 430.46971,241.58112 C 429.62206,242.05548 428.92853,243.75007 428.92853,245.34686 C 428.92853,246.94365 428.40427,249.40074 427.76351,250.80706 C 426.76882,252.99017 426.9042,253.69151 428.6895,255.60411 C 430.64778,257.70202 430.69596,258.16162 429.44851,262.84422 C 428.71591,265.59422 427.82334,268.5737 427.46501,269.46528 C 426.8109,271.09283 428.48016,273.38146 431.72789,275.30989 C 433.28304,276.2333 433.23855,276.47046 431.20793,278.08195 C 429.59254,279.36393 428.81164,281.35939 428.34265,285.40367 C 427.73539,290.64037 427.85164,291.06382 430.34511,292.6976 C 431.80104,293.65157 432.72636,294.86231 432.40138,295.38815 C 432.07639,295.91399 432.84955,296.35853 434.11951,296.37602 C 435.38947,296.39352 437.27521,297.0489 438.31004,297.83243 C 439.34487,298.61596 442.71987,299.77873 445.81004,300.41636 C 455.04872,302.3227 458.66552,304.66088 460.00796,309.59499 C 461.59456,315.42647 460.51527,329.43397 458.35742,331.01645 C 457.28735,331.8012 451.58071,332.16968 441.09375,332.13119 C 420.33816,332.055 417.71059,332.18257 418.36093,333.23484 C 419.49749,335.07383 413.81617,337.58187 409.92375,336.95945 L 406.176,336.36016 L 406.65352,341.10219 C 407.24069,346.93306 410.43608,354.0103 413.1333,355.45381 C 414.66793,356.27512 414.86546,356.8032 413.96857,357.68686 C 413.07702,358.56527 412.48226,358.42242 411.50097,357.09422 C 408.95927,353.65398 406.84048,355.44266 408.89965,359.29025 C 409.53559,360.47853 409.49772,363.22261 408.78991,367.24091 C 407.89323,372.33144 407.98909,374.23321 409.3525,378.40158 C 410.25639,381.16508 410.71704,383.87741 410.37615,384.42898 C 409.4421,385.9403 411.8826,388.34422 414.35098,388.34422 C 415.54863,388.34422 416.96565,388.78134 417.49992,389.31561 C 418.03418,389.84987 419.46258,390.43827 420.67415,390.62317 C 421.88571,390.80807 423.20305,391.2854 423.60156,391.68391 C 424.42901,392.51136 426.1425,411.86005 426.18396,420.84422 C 426.27381,440.31686 425.7943,468.03086 425.33594,469.85711 C 425.0035,471.18165 422.71328,473.04808 419.29924,474.77677 C 415.63385,476.63273 413.97632,478.02637 414.33198,478.95321 C 415.18578,481.17818 413.88436,483.34422 411.69373,483.34422 C 409.88116,483.34422 409.7419,483.77565 410.34239,487.5309 C 410.7106,489.83358 411.62857,493.09608 412.38231,494.7809 C 414.52323,499.56647 415.10105,504.87147 413.79386,507.74044 C 413.14136,509.17252 412.28222,510.34422 411.88465,510.34422 C 411.48708,510.34422 410.87691,511.35672 410.52873,512.59422 C 409.93283,514.71211 409.81549,514.73974 408.53036,513.06483 C 407.30349,511.46584 407.10238,511.44879 406.5468,512.89662 C 406.20675,513.78277 405.92853,515.37099 405.92853,516.42601 C 405.92853,517.48102 405.47853,518.34422 404.92853,518.34422 C 404.31823,518.34422 403.83224,512.59616 403.68145,503.59422 z M 419.92853,404.34422 C 419.92853,402.14422 419.47853,400.34422 418.92853,400.34422 C 418.37853,400.34422 417.92853,402.14422 417.92853,404.34422 C 417.92853,406.54422 418.37853,408.34422 418.92853,408.34422 C 419.47853,408.34422 419.92853,406.54422 419.92853,404.34422 z M 419.92853,344.96085 C 419.92853,344.2 420.92138,343.31785 422.13486,343.00051 C 424.78196,342.30828 425.3732,342.74305 424.58345,344.80109 C 423.84795,346.71778 419.92853,346.8523 419.92853,344.96085 z M 414.23467,341.69961 C 413.84828,340.69271 414.32231,339.52945 415.45718,338.69961 C 419.25445,335.92298 422.37883,338.08418 419.3715,341.40723 C 417.22661,343.77731 415.07886,343.89956 414.23467,341.69961 z M 433.48703,339.43888 C 432.3708,337.63278 433.75036,333.34422 435.44758,333.34422 C 437.29638,333.34422 437.37011,336.35806 435.58117,338.80458 C 434.60051,340.14571 434.03057,340.31834 433.48703,339.43888 z "
         style="fill:#b1b4b8"
         id="path1422" />
      <path
         d="M 395.13421,329.75424 C 393.9299,328.87235 393.73692,326.77041 394.1234,318.74443 C 394.38612,313.28852 395.13809,307.82117 395.79445,306.59476 C 397.38683,303.61936 401.53149,301.59491 409.1148,300.08845 C 414.12655,299.09284 415.62992,298.34468 416.63855,296.34422 C 418.14367,293.35905 418.3139,286.93281 416.95512,284.3939 C 416.29774,283.16558 416.40799,280.93172 417.29469,277.51341 C 418.38041,273.32783 418.37899,271.7934 417.28646,268.64799 C 416.39784,266.0896 416.25332,263.862 416.84506,261.84422 C 417.87229,258.34151 418.08522,232.18345 417.09868,230.68801 C 416.7301,230.1293 413.85884,228.04037 410.71811,226.04594 C 403.80595,221.65657 400.92853,216.74748 400.92853,209.34422 C 400.92853,200.2097 405.55821,194.00621 416.22772,188.84422 C 421.34662,186.36766 422.48375,185.36434 422.74499,183.09384 C 422.91904,181.58112 423.94854,179.86869 425.03276,179.28844 C 427.16097,178.14945 431.29175,178.9475 430.4359,180.3323 C 429.11135,182.47546 432.06283,186.31004 436.57233,188.30481 C 447.23898,193.02317 451.92853,199.21872 451.92853,208.59249 C 451.92853,212.13146 451.17304,215.41592 449.67853,218.37426 C 447.16924,223.34134 441.42434,227.8128 438.98314,226.69886 C 433.97805,224.41499 421.08065,225.81613 420.82257,228.67177 C 420.51557,232.06863 421.25246,236.10058 422.54981,238.12247 C 423.35382,239.3755 423.66843,240.9505 423.24894,241.62247 C 422.82945,242.29443 422.33833,244.64422 422.15756,246.84422 C 421.97679,249.04422 421.62733,253.09422 421.38098,255.84422 C 420.9503,260.652 420.85712,263.33903 420.99086,267.09422 C 421.02514,268.05672 421.01823,269.96922 420.97551,271.34422 C 420.61637,282.90385 421.01371,290.9039 422.08061,293.59422 C 422.68042,295.10672 423.22908,296.36806 423.29985,296.39721 C 423.37062,296.42635 426.80353,297.06893 430.92853,297.82516 C 447.35257,300.83617 455.9961,303.77451 458.64673,307.2479 C 459.41537,308.25512 459.87666,312.6198 459.89673,319.07517 C 459.92721,328.88089 459.83501,329.3271 457.67853,329.81096 C 452.82269,330.9005 396.62995,330.84953 395.13421,329.75424 z "
         style="fill:#625257"
         id="path1424" />
      <path
         d="M 395.45494,324.50055 C 394.70328,320.05152 395.65875,309.84549 397.08352,307.10457 C 398.93535,303.54208 404.77707,301.66855 420.17853,299.69762 C 425.8711,298.96914 426.75808,300.7743 421.17853,301.73282 C 417.78639,302.31556 412.92853,305.27249 412.92853,306.75451 C 412.92853,307.07885 413.82853,308.24422 414.92853,309.34422 C 418.07443,312.49012 417.49926,315.80993 413.38807,318.23559 C 410.32212,320.04455 409.99177,320.59388 410.92326,322.33437 C 411.51486,323.43979 412.54557,324.36397 413.21371,324.38811 C 415.75777,324.48003 406.27181,327.28236 401.32402,327.90054 L 396.13882,328.54839 L 395.45494,324.50055 z M 411.42853,220.74038 C 404.29314,215.77198 402.92853,213.83795 402.92853,208.6936 C 402.92853,199.58109 408.43883,193.46928 420.34886,189.37163 C 426.05668,187.40785 426.47955,187.39535 432.26702,189.01923 C 439.3647,191.01074 444.92853,195.42066 444.92853,199.0548 C 444.92853,201.03597 444.56346,201.41383 443.17853,200.86613 C 436.96185,198.40765 431.92853,199.5018 431.92853,203.31168 C 431.92853,204.25909 430.98246,205.89043 429.82615,206.93687 C 428.66984,207.98332 427.09044,210.06423 426.31637,211.56112 C 424.97326,214.1584 425.0442,214.35267 427.86909,215.81348 C 432.11479,218.00902 436.57195,217.81581 437.20136,215.40893 C 437.56826,214.00588 438.29217,213.62655 439.83357,214.02964 C 443.13083,214.89189 443.3185,216.24546 440.29992,217.39312 C 438.78799,217.96795 436.906,219.35907 436.11772,220.4845 C 435.1221,221.90595 433.93311,222.38709 432.2236,222.06029 C 430.8701,221.80156 427.70349,222.20959 425.18668,222.96704 C 418.68648,224.92332 417.05717,224.65962 411.42853,220.74038 z M 424.62545,183.95109 C 424.21625,182.90987 424.11705,181.82237 424.40499,181.53443 C 425.31705,180.62237 426.11955,182.11699 425.73738,184.01595 C 425.38714,185.75628 425.33365,185.75316 424.62545,183.95109 z "
         style="fill:#281c1d"
         id="path1426" />
    </g>
  </g>
</svg>
